<svg width="137" height="34" viewBox="0 0 137 34" fill="none" xmlns="http://www.w3.org/2000/svg">
<path d="M53.002 19.301V26H50.45V6.715H55.873C56.685 6.715 57.468 6.87933 58.222 7.208C58.976 7.51733 59.643 7.962 60.223 8.542C60.803 9.14133 61.2477 9.82767 61.557 10.601C61.8857 11.355 62.05 12.1573 62.05 13.008C62.05 13.8587 61.8857 14.6707 61.557 15.444C61.2477 16.198 60.803 16.865 60.223 17.445C59.643 18.025 58.976 18.4793 58.222 18.808C57.468 19.1367 56.685 19.301 55.873 19.301H53.002ZM53.002 9.354V16.72H55.873C56.8783 16.72 57.729 16.3527 58.425 15.618C59.1403 14.9027 59.498 14.0327 59.498 13.008C59.498 12.0027 59.1403 11.1423 58.425 10.427C57.7097 9.71167 56.859 9.354 55.873 9.354H53.002ZM63.7968 26V6.715H66.1168V26H63.7968ZM75.1847 26.145C74.1987 26.145 73.2611 25.9517 72.3717 25.565C71.4824 25.1783 70.6994 24.6467 70.0227 23.97C69.3461 23.2933 68.8144 22.5103 68.4277 21.621C68.0411 20.7317 67.8477 19.794 67.8477 18.808C67.8477 17.8027 68.0411 16.8457 68.4277 15.937C68.8144 15.0283 69.3461 14.2357 70.0227 13.559C70.6994 12.8823 71.4824 12.3603 72.3717 11.993C73.2611 11.6063 74.1987 11.413 75.1847 11.413C76.1901 11.413 77.1471 11.6063 78.0557 11.993C78.9644 12.3603 79.7571 12.8823 80.4337 13.559C81.1104 14.2357 81.6324 15.0283 81.9997 15.937C82.3864 16.8457 82.5797 17.8027 82.5797 18.808C82.5797 19.794 82.3864 20.7317 81.9997 21.621C81.6324 22.5103 81.1104 23.2933 80.4337 23.97C79.7571 24.6467 78.9644 25.1783 78.0557 25.565C77.1471 25.9517 76.1901 26.145 75.1847 26.145ZM75.1847 13.994C73.8894 13.994 72.7777 14.458 71.8497 15.386C71.4051 15.8307 71.0571 16.3527 70.8057 16.952C70.5544 17.5513 70.4287 18.17 70.4287 18.808C70.4287 19.446 70.5544 20.055 70.8057 20.635C71.0571 21.215 71.4051 21.7273 71.8497 22.172C72.2944 22.6167 72.7971 22.9647 73.3577 23.216C73.9377 23.4673 74.5467 23.593 75.1847 23.593C75.8227 23.593 76.4414 23.4673 77.0407 23.216C77.6401 22.9647 78.1524 22.6167 78.5777 22.172C79.0031 21.7273 79.3414 21.215 79.5927 20.635C79.8441 20.055 79.9697 19.446 79.9697 18.808C79.9697 18.17 79.8441 17.5513 79.5927 16.952C79.3414 16.3527 79.0031 15.8307 78.5777 15.386C78.1524 14.9413 77.6401 14.603 77.0407 14.371C76.4607 14.1197 75.8421 13.994 75.1847 13.994ZM90.7972 26.145C89.8112 26.145 88.8735 25.9517 87.9842 25.565C87.0948 25.1783 86.3118 24.6467 85.6352 23.97C84.9585 23.2933 84.4268 22.5103 84.0402 21.621C83.6535 20.7317 83.4602 19.794 83.4602 18.808C83.4602 17.8027 83.6535 16.8457 84.0402 15.937C84.4268 15.0283 84.9585 14.2357 85.6352 13.559C86.3118 12.8823 87.0948 12.3603 87.9842 11.993C88.8735 11.6063 89.8112 11.413 90.7972 11.413C91.8025 11.413 92.7595 11.6063 93.6682 11.993C94.5768 12.3603 95.3695 12.8823 96.0462 13.559C96.7228 14.2357 97.2448 15.0283 97.6122 15.937C97.9988 16.8457 98.1922 17.8027 98.1922 18.808C98.1922 19.794 97.9988 20.7317 97.6122 21.621C97.2448 22.5103 96.7228 23.2933 96.0462 23.97C95.3695 24.6467 94.5768 25.1783 93.6682 25.565C92.7595 25.9517 91.8025 26.145 90.7972 26.145ZM90.7972 13.994C89.5018 13.994 88.3902 14.458 87.4622 15.386C87.0175 15.8307 86.6695 16.3527 86.4182 16.952C86.1668 17.5513 86.0412 18.17 86.0412 18.808C86.0412 19.446 86.1668 20.055 86.4182 20.635C86.6695 21.215 87.0175 21.7273 87.4622 22.172C87.9068 22.6167 88.4095 22.9647 88.9702 23.216C89.5502 23.4673 90.1592 23.593 90.7972 23.593C91.4352 23.593 92.0538 23.4673 92.6532 23.216C93.2525 22.9647 93.7648 22.6167 94.1902 22.172C94.6155 21.7273 94.9538 21.215 95.2052 20.635C95.4565 20.055 95.5822 19.446 95.5822 18.808C95.5822 18.17 95.4565 17.5513 95.2052 16.952C94.9538 16.3527 94.6155 15.8307 94.1902 15.386C93.7648 14.9413 93.2525 14.603 92.6532 14.371C92.0732 14.1197 91.4545 13.994 90.7972 13.994ZM108.89 26V17.3C108.89 16.43 108.571 15.676 107.933 15.038C107.314 14.4193 106.56 14.11 105.671 14.11C104.801 14.11 104.047 14.429 103.409 15.067C103.119 15.357 102.887 15.705 102.713 16.111C102.539 16.4977 102.452 16.894 102.452 17.3V26H99.929V11.848H102.452V13.037C102.819 12.5923 103.303 12.225 103.902 11.935C104.501 11.645 105.091 11.5 105.671 11.5C106.444 11.5 107.179 11.6547 107.875 11.964C108.59 12.254 109.219 12.6697 109.76 13.211C110.282 13.733 110.688 14.3517 110.978 15.067C111.287 15.763 111.442 16.5073 111.442 17.3V26H108.89ZM115.685 19.852C115.685 20.316 115.849 20.7993 116.178 21.302C116.526 21.8047 116.922 22.23 117.367 22.578C118.179 23.216 119.126 23.535 120.209 23.535C121.929 23.535 123.331 22.7037 124.414 21.041L126.618 22.346C125.864 23.564 124.936 24.5017 123.834 25.159C122.732 25.8163 121.523 26.145 120.209 26.145C119.223 26.145 118.285 25.9613 117.396 25.594C116.506 25.2073 115.723 24.6757 115.047 23.999C114.37 23.3223 113.838 22.5393 113.452 21.65C113.084 20.7607 112.901 19.823 112.901 18.837C112.901 17.851 113.084 16.9133 113.452 16.024C113.838 15.1153 114.37 14.3227 115.047 13.646C115.704 12.9693 116.477 12.4473 117.367 12.08C118.275 11.7127 119.223 11.529 120.209 11.529C121.195 11.529 122.132 11.7127 123.022 12.08C123.93 12.4473 124.713 12.9693 125.371 13.646C126.801 15.1153 127.517 16.8167 127.517 18.75C127.517 19.098 127.488 19.4653 127.43 19.852H115.685ZM120.209 13.907C119.416 13.907 118.672 14.081 117.976 14.429C117.28 14.777 116.719 15.241 116.294 15.821C115.888 16.3817 115.685 16.981 115.685 17.619H124.733C124.733 16.981 124.52 16.3817 124.095 15.821C123.689 15.241 123.138 14.777 122.442 14.429C121.746 14.081 121.001 13.907 120.209 13.907ZM133.04 14.11V26H130.575V14.11H128.4V11.5H130.575V6.715H133.04V11.5H135.215V14.11H133.04Z" fill="#00CE9D"/>
<path fill-rule="evenodd" clip-rule="evenodd" d="M35.9245 31.2736V2.08491C35.9245 1.28302 35.8925 0 33.8396 0H10.9057C7.27044 0 0 2.66226 0 13.3113C0 23.9604 7.27044 26.6226 10.9057 26.6226H23.7359C25.6069 26.4623 29.766 27.1679 31.434 31.2736C31.8249 32.2358 32.8774 34 34.1604 34C35.1226 34 35.9245 33.4547 35.9245 31.2736ZM11.7044 11.794C11.3979 10.7328 10.2891 10.1211 9.22794 10.4276C8.16676 10.7342 7.55503 11.843 7.86159 12.9041C8.29057 14.3891 9.3211 16.4992 11.0782 18.2688C12.8726 20.0761 15.4725 21.566 18.9245 21.566C22.3867 21.566 24.9274 20.0662 26.6385 18.2187C28.3046 16.42 29.2042 14.2816 29.5373 12.7829C29.7769 11.7047 29.097 10.6363 28.0188 10.3967C26.9405 10.1571 25.8721 10.8369 25.6325 11.9152C25.431 12.8222 24.8231 14.2923 23.7039 15.5006C22.6298 16.6602 21.1076 17.566 18.9245 17.566C16.7312 17.566 15.1079 16.6503 13.9167 15.4505C12.688 14.2131 11.9704 12.7147 11.7044 11.794Z" fill="#00CE9D"/>
</svg>
