<svg width="28" height="28" viewBox="0 0 28 28" fill="none" xmlns="http://www.w3.org/2000/svg">
<g clip-path="url(#clip0_284_2928)">
<path d="M25.2 0H2.8C2.05739 0 1.3452 0.294999 0.820101 0.820101C0.294999 1.3452 0 2.05739 0 2.8L0 28L5.6 22.4H25.2C25.9426 22.4 26.6548 22.105 27.1799 21.5799C27.705 21.0548 28 20.3426 28 19.6V2.8C28 2.05739 27.705 1.3452 27.1799 0.820101C26.6548 0.294999 25.9426 0 25.2 0V0ZM19.6 5.6C20.0153 5.6 20.4214 5.72316 20.7667 5.95391C21.112 6.18466 21.3812 6.51264 21.5401 6.89636C21.6991 7.28009 21.7407 7.70233 21.6596 8.10969C21.5786 8.51705 21.3786 8.89123 21.0849 9.18492C20.7912 9.47861 20.417 9.67862 20.0097 9.75965C19.6023 9.84068 19.1801 9.79909 18.7964 9.64015C18.4126 9.4812 18.0847 9.21204 17.8539 8.8667C17.6232 8.52135 17.5 8.11534 17.5 7.7C17.5 7.14305 17.7212 6.6089 18.1151 6.21508C18.5089 5.82125 19.043 5.6 19.6 5.6ZM8.4 5.6C8.81534 5.6 9.22135 5.72316 9.5667 5.95391C9.91204 6.18466 10.1812 6.51264 10.3401 6.89636C10.4991 7.28009 10.5407 7.70233 10.4596 8.10969C10.3786 8.51705 10.1786 8.89123 9.88492 9.18492C9.59123 9.47861 9.21705 9.67862 8.80969 9.75965C8.40233 9.84068 7.98009 9.79909 7.59636 9.64015C7.21264 9.4812 6.88467 9.21204 6.65391 8.8667C6.42316 8.52135 6.3 8.11534 6.3 7.7C6.3 7.14305 6.52125 6.6089 6.91508 6.21508C7.3089 5.82125 7.84305 5.6 8.4 5.6ZM14 16.8C10.346 16.8 7.238 15.862 6.09 12.6H21.91C20.762 15.862 17.654 16.8 14 16.8Z" fill="white"/>
</g>
<defs>
<clipPath id="clip0_284_2928">
<rect width="28" height="28" fill="white"/>
</clipPath>
</defs>
</svg>
