<svg width="15" height="12" viewBox="0 0 15 12" fill="none" xmlns="http://www.w3.org/2000/svg">
<path d="M14.71 1.41847C14.169 1.65818 13.5879 1.82014 12.977 1.89334C13.6074 1.51616 14.079 0.922524 14.3038 0.223195C13.7116 0.574969 13.0634 0.82258 12.3875 0.955262C11.9329 0.469937 11.3309 0.148256 10.6748 0.0401616C10.0187 -0.067933 9.34525 0.0436065 8.75904 0.357463C8.17283 0.67132 7.70664 1.16993 7.43284 1.77589C7.15905 2.38185 7.09297 3.06125 7.24487 3.70861C6.04485 3.64836 4.87092 3.33645 3.79925 2.79314C2.72758 2.24983 1.78212 1.48725 1.02425 0.554893C0.765106 1.00191 0.616102 1.52018 0.616102 2.07215C0.615813 2.56904 0.738177 3.05833 0.972339 3.49659C1.2065 3.93485 1.54522 4.30854 1.95844 4.5845C1.47921 4.56925 1.01056 4.43976 0.591484 4.2068V4.24567C0.591435 4.94259 0.832504 5.61806 1.27378 6.15747C1.71507 6.69688 2.32938 7.067 3.01249 7.20504C2.56792 7.32535 2.10183 7.34307 1.64942 7.25687C1.84215 7.85652 2.21758 8.3809 2.72314 8.75658C3.2287 9.13227 3.83908 9.34046 4.46884 9.352C3.39979 10.1912 2.07951 10.6465 0.720405 10.6445C0.479653 10.6445 0.239105 10.6305 0 10.6023C1.37957 11.4894 2.9855 11.9601 4.62562 11.9583C10.1777 11.9583 13.2128 7.35987 13.2128 3.37173C13.2128 3.24216 13.2096 3.11129 13.2038 2.98173C13.7941 2.55478 14.3037 2.02608 14.7087 1.42042L14.71 1.41847Z" fill="white"/>
</svg>
