<svg width="15" height="13" viewBox="0 0 15 13" fill="none" xmlns="http://www.w3.org/2000/svg">
<path d="M14.71 1.57668C14.169 1.81638 13.5879 1.97834 12.977 2.05155C13.6074 1.67437 14.079 1.08073 14.3038 0.381398C13.7116 0.733172 13.0634 0.980783 12.3875 1.11346C11.9329 0.62814 11.3309 0.306459 10.6748 0.198365C10.0187 0.0902701 9.34525 0.20181 8.75904 0.515666C8.17283 0.829523 7.70664 1.32814 7.43284 1.93409C7.15905 2.54005 7.09297 3.21945 7.24487 3.86681C6.04485 3.80656 4.87092 3.49466 3.79925 2.95134C2.72758 2.40803 1.78212 1.64545 1.02425 0.713096C0.765106 1.16011 0.616102 1.67839 0.616102 2.23035C0.615813 2.72725 0.738177 3.21653 0.972339 3.65479C1.2065 4.09306 1.54522 4.46674 1.95844 4.7427C1.47921 4.72745 1.01056 4.59796 0.591484 4.36501V4.40388C0.591435 5.10079 0.832504 5.77626 1.27378 6.31567C1.71507 6.85508 2.32938 7.2252 3.01249 7.36324C2.56792 7.48356 2.10183 7.50128 1.64942 7.41507C1.84215 8.01472 2.21758 8.5391 2.72314 8.91479C3.2287 9.29047 3.83908 9.49866 4.46884 9.5102C3.39979 10.3494 2.07951 10.8047 0.720405 10.8027C0.479653 10.8027 0.239105 10.7887 0 10.7605C1.37957 11.6476 2.9855 12.1183 4.62562 12.1165C10.1777 12.1165 13.2128 7.51808 13.2128 3.52993C13.2128 3.40036 13.2096 3.2695 13.2038 3.13993C13.7941 2.71298 14.3037 2.18429 14.7087 1.57862L14.71 1.57668V1.57668Z" fill="black"/>
</svg>
