<svg width="24" height="24" viewBox="0 0 24 24" fill="none" xmlns="http://www.w3.org/2000/svg">
<g clip-path="url(#clip0_284_3274)">
<path d="M19 20.0001H6.00001C2.87438 20.002 0.2709 17.604 0.0163703 14.4887C-0.23816 11.3735 1.94153 8.58465 5.02601 8.07911C6.44572 5.562 9.11012 4.00363 12 4.00006C13.802 3.99325 15.5525 4.60141 16.962 5.72411C18.3461 6.82197 19.3301 8.34509 19.762 10.0581C22.3459 10.4551 24.1878 12.7756 23.988 15.3822C23.7882 17.9888 21.6142 20.0015 19 20.0001ZM12 6.0001C9.83172 6.00267 7.83268 7.17221 6.76801 9.06111L6.30001 9.90011L5.35101 10.0551C3.30129 10.3985 1.85602 12.2544 2.02522 14.3258C2.19442 16.3972 3.92173 17.9939 6.00001 18.0001H19C20.5686 18.0017 21.8736 16.7947 21.9942 15.2308C22.1148 13.6668 21.0103 12.274 19.46 12.0351L18.144 11.8351L17.822 10.5431C17.1573 7.86992 14.7546 5.99507 12 6.0001ZM13.45 16.0001H10.55V13.0001H8.00001L12 9.00011L16 13.0001H13.45V16.0001Z" fill="#4575FF"/>
</g>
<defs>
<clipPath id="clip0_284_3274">
<rect width="24" height="24" fill="white"/>
</clipPath>
</defs>
</svg>
