<svg width="16" height="11" viewBox="0 0 16 11" fill="none" xmlns="http://www.w3.org/2000/svg">
<path d="M15.665 1.83262C15.5744 1.50948 15.3979 1.21693 15.1544 0.986064C14.9039 0.748099 14.597 0.577877 14.2625 0.491464C13.0107 0.161509 7.99534 0.161509 7.99534 0.161509C5.9045 0.13772 3.81418 0.242347 1.73618 0.4748C1.40168 0.567596 1.09531 0.741622 0.844298 0.981398C0.597664 1.2187 0.419022 1.51133 0.325701 1.83195C0.101526 3.03962 -0.00739287 4.26585 0.0004114 5.49413C-0.00758752 6.72129 0.101065 7.94713 0.325701 9.1563C0.417022 9.47559 0.594998 9.76689 0.842298 10.0022C1.0896 10.2375 1.39756 10.4075 1.73618 10.4975C3.00467 10.8267 7.99534 10.8267 7.99534 10.8267C10.0888 10.8506 12.1818 10.7459 14.2625 10.5135C14.597 10.427 14.9039 10.2568 15.1544 10.0189C15.3978 9.78803 15.5741 9.49544 15.6643 9.1723C15.8943 7.9651 16.0062 6.73835 15.9983 5.50946C16.0156 4.27536 15.9039 3.04283 15.665 1.83195V1.83262ZM6.40088 7.77649V3.21243L10.5737 5.49479L6.40088 7.77649Z" fill="black"/>
</svg>
