<svg width="16" height="11" viewBox="0 0 16 11" fill="none" xmlns="http://www.w3.org/2000/svg">
<path d="M15.665 1.67441C15.5744 1.35128 15.3979 1.05873 15.1544 0.827861C14.9039 0.589896 14.597 0.419673 14.2625 0.333261C13.0107 0.00330541 7.99534 0.00330548 7.99534 0.00330548C5.9045 -0.0204829 3.81418 0.0841443 1.73618 0.316597C1.40168 0.409393 1.09531 0.583419 0.844298 0.823195C0.597664 1.0605 0.419022 1.35312 0.325701 1.67375C0.101526 2.88141 -0.00739287 4.10765 0.0004114 5.33592C-0.00758752 6.56309 0.101065 7.78893 0.325701 8.9981C0.417022 9.31739 0.594998 9.60868 0.842298 9.84398C1.0896 10.0793 1.39756 10.2493 1.73618 10.3393C3.00467 10.6685 7.99534 10.6685 7.99534 10.6685C10.0888 10.6924 12.1818 10.5877 14.2625 10.3552C14.597 10.2688 14.9039 10.0986 15.1544 9.86065C15.3978 9.62983 15.5741 9.33724 15.6643 9.01409C15.8943 7.80689 16.0062 6.58015 15.9983 5.35125C16.0156 4.11716 15.9039 2.88463 15.665 1.67375V1.67441ZM6.40088 7.61828V3.05423L10.5737 5.33659L6.40088 7.61828Z" fill="white"/>
</svg>
