<svg width="14" height="15" viewBox="0 0 14 15" fill="none" xmlns="http://www.w3.org/2000/svg">
<path fill-rule="evenodd" clip-rule="evenodd" d="M4.11409 0.200203C4.86055 0.165839 5.09855 0.158203 7 0.158203C8.90145 0.158203 9.13945 0.166476 9.88527 0.200203C10.6311 0.23393 11.1402 0.35293 11.5856 0.525385C12.0521 0.701658 12.4753 0.977203 12.8253 1.33357C13.1816 1.68293 13.4565 2.10548 13.6322 2.57257C13.8053 3.01802 13.9236 3.52711 13.958 4.27166C13.9924 5.01938 14 5.25738 14 7.1582C14 9.05966 13.9917 9.29766 13.958 10.0441C13.9243 10.7887 13.8053 11.2977 13.6322 11.7432C13.4565 12.2104 13.1812 12.6336 12.8253 12.9835C12.4753 13.3398 12.0521 13.6147 11.5856 13.7904C11.1402 13.9635 10.6311 14.0818 9.88654 14.1162C9.13945 14.1506 8.90145 14.1582 7 14.1582C5.09855 14.1582 4.86055 14.1499 4.11409 14.1162C3.36955 14.0825 2.86045 13.9635 2.415 13.7904C1.94786 13.6147 1.52461 13.3394 1.17473 12.9835C0.818605 12.6339 0.543018 12.2109 0.367182 11.7438C0.194727 11.2984 0.0763636 10.7893 0.042 10.0447C0.00763635 9.29702 0 9.05902 0 7.1582C0 5.25675 0.00827272 5.01875 0.042 4.27293C0.0757273 3.52711 0.194727 3.01802 0.367182 2.57257C0.543278 2.10553 0.819076 1.68249 1.17536 1.33293C1.52475 0.976886 1.94757 0.701303 2.41436 0.525385C2.85982 0.35293 3.36891 0.234567 4.11345 0.200203H4.11409ZM9.82864 1.4602C9.09045 1.42648 8.869 1.41948 7 1.41948C5.131 1.41948 4.90955 1.42648 4.17136 1.4602C3.48855 1.49138 3.11818 1.60529 2.87127 1.70138C2.54482 1.82866 2.31127 1.97948 2.06627 2.22448C1.83403 2.45042 1.6553 2.72547 1.54318 3.02948C1.44709 3.27638 1.33318 3.64675 1.302 4.32957C1.26827 5.06775 1.26127 5.2892 1.26127 7.1582C1.26127 9.0272 1.26827 9.24866 1.302 9.98684C1.33318 10.6697 1.44709 11.04 1.54318 11.2869C1.65518 11.5905 1.834 11.866 2.06627 12.0919C2.29218 12.3242 2.56773 12.503 2.87127 12.615C3.11818 12.7111 3.48855 12.825 4.17136 12.8562C4.90955 12.8899 5.13036 12.8969 7 12.8969C8.86964 12.8969 9.09045 12.8899 9.82864 12.8562C10.5115 12.825 10.8818 12.7111 11.1287 12.615C11.4552 12.4877 11.6887 12.3369 11.9337 12.0919C12.166 11.866 12.3448 11.5905 12.4568 11.2869C12.5529 11.04 12.6668 10.6697 12.698 9.98684C12.7317 9.24866 12.7387 9.0272 12.7387 7.1582C12.7387 5.2892 12.7317 5.06775 12.698 4.32957C12.6668 3.64675 12.5529 3.27638 12.4568 3.02948C12.3295 2.70302 12.1787 2.46948 11.9337 2.22448C11.7078 1.99225 11.4327 1.81352 11.1287 1.70138C10.8818 1.60529 10.5115 1.49138 9.82864 1.4602V1.4602ZM6.10591 9.31611C6.60524 9.52397 7.16124 9.55202 7.67895 9.39548C8.19667 9.23894 8.64398 8.90751 8.94448 8.45781C9.24498 8.00811 9.38004 7.46803 9.32658 6.92982C9.27312 6.3916 9.03446 5.88864 8.65136 5.50684C8.40715 5.26278 8.11186 5.0759 7.78676 4.95966C7.46165 4.84342 7.11482 4.80071 6.77122 4.83459C6.42763 4.86848 6.09582 4.97813 5.79969 5.15565C5.50356 5.33317 5.25047 5.57413 5.05865 5.8612C4.86682 6.14827 4.74103 6.4743 4.69033 6.81581C4.63963 7.15733 4.66528 7.50584 4.76543 7.83626C4.86559 8.16667 5.03776 8.47077 5.26955 8.72666C5.50134 8.98255 5.78698 9.18387 6.10591 9.31611ZM4.45582 4.61402C4.78992 4.27991 5.18657 4.01489 5.6231 3.83407C6.05963 3.65325 6.5275 3.56019 7 3.56019C7.4725 3.56019 7.94037 3.65325 8.3769 3.83407C8.81343 4.01489 9.21008 4.27991 9.54418 4.61402C9.87829 4.94813 10.1433 5.34477 10.3241 5.7813C10.505 6.21783 10.598 6.6857 10.598 7.1582C10.598 7.6307 10.505 8.09857 10.3241 8.5351C10.1433 8.97164 9.87829 9.36828 9.54418 9.70238C8.86942 10.3771 7.95425 10.7562 7 10.7562C6.04575 10.7562 5.13058 10.3771 4.45582 9.70238C3.78106 9.02763 3.40198 8.11246 3.40198 7.1582C3.40198 6.20395 3.78106 5.28878 4.45582 4.61402V4.61402ZM11.396 4.09602C11.4788 4.01792 11.5451 3.924 11.5909 3.81982C11.6368 3.71565 11.6612 3.60333 11.6629 3.48952C11.6646 3.37572 11.6434 3.26273 11.6006 3.15726C11.5578 3.05179 11.4943 2.95598 11.4138 2.8755C11.3333 2.79502 11.2375 2.7315 11.132 2.68871C11.0266 2.64593 10.9136 2.62473 10.7998 2.62639C10.686 2.62805 10.5736 2.65253 10.4695 2.69837C10.3653 2.74422 10.2714 2.8105 10.1933 2.89329C10.0414 3.05431 9.95822 3.26819 9.96145 3.48952C9.96467 3.71085 10.054 3.92222 10.2106 4.07874C10.3671 4.23526 10.5784 4.32462 10.7998 4.32785C11.0211 4.33107 11.235 4.24791 11.396 4.09602V4.09602Z" fill="black"/>
</svg>
